<?xml version="1.0" encoding="utf-8"?>
<svg version="1.1" xmlns:xlink="http://www.w3.org/1999/xlink" width="28px" height="28px" xmlns="http://www.w3.org/2000/svg">
  <defs>
    <mask fill="white" id="clip16">
      <path d="M 8.5625 1.109375  C 10.2916666666667 0.369791666666667  12.1041666666667 0  14 0  C 15.8958333333333 0  17.7083333333333 0.369791666666667  19.4375 1.109375  C 21.1666666666667 1.84895833333333  22.65625 2.84375  23.90625 4.09375  C 25.15625 5.34375  26.1510416666667 6.83333333333333  26.890625 8.5625  C 27.6302083333333 10.2916666666667  28 12.1041666666667  28 14  C 28 15.8854166666667  27.6328125 17.6927083333333  26.8984375 19.421875  C 26.1640625 21.1510416666667  25.171875 22.640625  23.921875 23.890625  C 22.671875 25.140625  21.1822916666667 26.1380208333333  19.453125 26.8828125  C 17.7239583333333 27.6276041666667  15.90625 28  14 28  C 12.09375 28  10.2760416666667 27.6302083333333  8.546875 26.890625  C 6.81770833333333 26.1510416666667  5.33072916666667 25.1536458333333  4.0859375 23.8984375  C 2.84114583333333 22.6432291666667  1.84895833333333 21.1536458333333  1.109375 19.4296875  C 0.369791666666667 17.7057291666667  0 15.8958333333333  0 14  C 0 12.1041666666667  0.369791666666667 10.2916666666667  1.109375 8.5625  C 1.84895833333333 6.83333333333333  2.84375 5.34375  4.09375 4.09375  C 5.34375 2.84375  6.83333333333333 1.84895833333333  8.5625 1.109375  Z M 18.890625 16  C 21.390625 16  22.984375 17.703125  23.671875 21.109375  C 25.2239583333333 18.9739583333333  26 16.6041666666667  26 14  C 26 12.375  25.6822916666667 10.8229166666667  25.046875 9.34375  C 24.4114583333333 7.86458333333333  23.5572916666667 6.58854166666666  22.484375 5.515625  C 21.4114583333333 4.44270833333333  20.1354166666667 3.58854166666667  18.65625 2.953125  C 17.1770833333333 2.31770833333333  15.625 2  14 2  C 12.375 2  10.8229166666667 2.31770833333333  9.34375 2.953125  C 7.86458333333333 3.58854166666667  6.58854166666667 4.44270833333333  5.515625 5.515625  C 4.44270833333333 6.58854166666666  3.58854166666667 7.86458333333333  2.953125 9.34375  C 2.31770833333333 10.8229166666667  2 12.375  2 14  C 2 16.6041666666667  2.77604166666667 18.9739583333333  4.328125 21.109375  C 5.015625 17.703125  6.609375 16  9.109375 16  C 10.4739583333333 17.3333333333333  12.1041666666667 18  14 18  C 15.8958333333333 18  17.5260416666667 17.3333333333333  18.890625 16  Z M 18.2421875 15.2421875  C 19.4140625 14.0703125  20 12.65625  20 11  C 20 9.34375  19.4140625 7.9296875  18.2421875 6.7578125  C 17.0703125 5.5859375  15.65625 5  14 5  C 12.34375 5  10.9296875 5.5859375  9.7578125 6.7578125  C 8.5859375 7.9296875  8 9.34375  8 11  C 8 12.65625  8.5859375 14.0703125  9.7578125 15.2421875  C 10.9296875 16.4140625  12.34375 17  14 17  C 15.65625 17  17.0703125 16.4140625  18.2421875 15.2421875  Z " fill-rule="evenodd" />
    </mask>
  </defs>
  <g transform="matrix(1 0 0 1 -56 -252 )">
    <path d="M 8.5625 1.109375  C 10.2916666666667 0.369791666666667  12.1041666666667 0  14 0  C 15.8958333333333 0  17.7083333333333 0.369791666666667  19.4375 1.109375  C 21.1666666666667 1.84895833333333  22.65625 2.84375  23.90625 4.09375  C 25.15625 5.34375  26.1510416666667 6.83333333333333  26.890625 8.5625  C 27.6302083333333 10.2916666666667  28 12.1041666666667  28 14  C 28 15.8854166666667  27.6328125 17.6927083333333  26.8984375 19.421875  C 26.1640625 21.1510416666667  25.171875 22.640625  23.921875 23.890625  C 22.671875 25.140625  21.1822916666667 26.1380208333333  19.453125 26.8828125  C 17.7239583333333 27.6276041666667  15.90625 28  14 28  C 12.09375 28  10.2760416666667 27.6302083333333  8.546875 26.890625  C 6.81770833333333 26.1510416666667  5.33072916666667 25.1536458333333  4.0859375 23.8984375  C 2.84114583333333 22.6432291666667  1.84895833333333 21.1536458333333  1.109375 19.4296875  C 0.369791666666667 17.7057291666667  0 15.8958333333333  0 14  C 0 12.1041666666667  0.369791666666667 10.2916666666667  1.109375 8.5625  C 1.84895833333333 6.83333333333333  2.84375 5.34375  4.09375 4.09375  C 5.34375 2.84375  6.83333333333333 1.84895833333333  8.5625 1.109375  Z M 18.890625 16  C 21.390625 16  22.984375 17.703125  23.671875 21.109375  C 25.2239583333333 18.9739583333333  26 16.6041666666667  26 14  C 26 12.375  25.6822916666667 10.8229166666667  25.046875 9.34375  C 24.4114583333333 7.86458333333333  23.5572916666667 6.58854166666666  22.484375 5.515625  C 21.4114583333333 4.44270833333333  20.1354166666667 3.58854166666667  18.65625 2.953125  C 17.1770833333333 2.31770833333333  15.625 2  14 2  C 12.375 2  10.8229166666667 2.31770833333333  9.34375 2.953125  C 7.86458333333333 3.58854166666667  6.58854166666667 4.44270833333333  5.515625 5.515625  C 4.44270833333333 6.58854166666666  3.58854166666667 7.86458333333333  2.953125 9.34375  C 2.31770833333333 10.8229166666667  2 12.375  2 14  C 2 16.6041666666667  2.77604166666667 18.9739583333333  4.328125 21.109375  C 5.015625 17.703125  6.609375 16  9.109375 16  C 10.4739583333333 17.3333333333333  12.1041666666667 18  14 18  C 15.8958333333333 18  17.5260416666667 17.3333333333333  18.890625 16  Z M 18.2421875 15.2421875  C 19.4140625 14.0703125  20 12.65625  20 11  C 20 9.34375  19.4140625 7.9296875  18.2421875 6.7578125  C 17.0703125 5.5859375  15.65625 5  14 5  C 12.34375 5  10.9296875 5.5859375  9.7578125 6.7578125  C 8.5859375 7.9296875  8 9.34375  8 11  C 8 12.65625  8.5859375 14.0703125  9.7578125 15.2421875  C 10.9296875 16.4140625  12.34375 17  14 17  C 15.65625 17  17.0703125 16.4140625  18.2421875 15.2421875  Z " fill-rule="nonzero" fill="#000000" stroke="none" fill-opacity="0" transform="matrix(1 0 0 1 56 252 )" />
    <path d="M 8.5625 1.109375  C 10.2916666666667 0.369791666666667  12.1041666666667 0  14 0  C 15.8958333333333 0  17.7083333333333 0.369791666666667  19.4375 1.109375  C 21.1666666666667 1.84895833333333  22.65625 2.84375  23.90625 4.09375  C 25.15625 5.34375  26.1510416666667 6.83333333333333  26.890625 8.5625  C 27.6302083333333 10.2916666666667  28 12.1041666666667  28 14  C 28 15.8854166666667  27.6328125 17.6927083333333  26.8984375 19.421875  C 26.1640625 21.1510416666667  25.171875 22.640625  23.921875 23.890625  C 22.671875 25.140625  21.1822916666667 26.1380208333333  19.453125 26.8828125  C 17.7239583333333 27.6276041666667  15.90625 28  14 28  C 12.09375 28  10.2760416666667 27.6302083333333  8.546875 26.890625  C 6.81770833333333 26.1510416666667  5.33072916666667 25.1536458333333  4.0859375 23.8984375  C 2.84114583333333 22.6432291666667  1.84895833333333 21.1536458333333  1.109375 19.4296875  C 0.369791666666667 17.7057291666667  0 15.8958333333333  0 14  C 0 12.1041666666667  0.369791666666667 10.2916666666667  1.109375 8.5625  C 1.84895833333333 6.83333333333333  2.84375 5.34375  4.09375 4.09375  C 5.34375 2.84375  6.83333333333333 1.84895833333333  8.5625 1.109375  Z " stroke-width="2" stroke="#01538b" fill="none" transform="matrix(1 0 0 1 56 252 )" mask="url(#clip16)" />
    <path d="M 18.890625 16  C 21.390625 16  22.984375 17.703125  23.671875 21.109375  C 25.2239583333333 18.9739583333333  26 16.6041666666667  26 14  C 26 12.375  25.6822916666667 10.8229166666667  25.046875 9.34375  C 24.4114583333333 7.86458333333333  23.5572916666667 6.58854166666666  22.484375 5.515625  C 21.4114583333333 4.44270833333333  20.1354166666667 3.58854166666667  18.65625 2.953125  C 17.1770833333333 2.31770833333333  15.625 2  14 2  C 12.375 2  10.8229166666667 2.31770833333333  9.34375 2.953125  C 7.86458333333333 3.58854166666667  6.58854166666667 4.44270833333333  5.515625 5.515625  C 4.44270833333333 6.58854166666666  3.58854166666667 7.86458333333333  2.953125 9.34375  C 2.31770833333333 10.8229166666667  2 12.375  2 14  C 2 16.6041666666667  2.77604166666667 18.9739583333333  4.328125 21.109375  C 5.015625 17.703125  6.609375 16  9.109375 16  C 10.4739583333333 17.3333333333333  12.1041666666667 18  14 18  C 15.8958333333333 18  17.5260416666667 17.3333333333333  18.890625 16  Z " stroke-width="2" stroke="#01538b" fill="none" transform="matrix(1 0 0 1 56 252 )" mask="url(#clip16)" />
    <path d="M 18.2421875 15.2421875  C 19.4140625 14.0703125  20 12.65625  20 11  C 20 9.34375  19.4140625 7.9296875  18.2421875 6.7578125  C 17.0703125 5.5859375  15.65625 5  14 5  C 12.34375 5  10.9296875 5.5859375  9.7578125 6.7578125  C 8.5859375 7.9296875  8 9.34375  8 11  C 8 12.65625  8.5859375 14.0703125  9.7578125 15.2421875  C 10.9296875 16.4140625  12.34375 17  14 17  C 15.65625 17  17.0703125 16.4140625  18.2421875 15.2421875  Z " stroke-width="2" stroke="#01538b" fill="none" transform="matrix(1 0 0 1 56 252 )" mask="url(#clip16)" />
  </g>
</svg>