<?xml version="1.0" encoding="utf-8"?>
<svg version="1.1" xmlns:xlink="http://www.w3.org/1999/xlink" width="26px" height="26px" xmlns="http://www.w3.org/2000/svg">
  <defs>
    <mask fill="white" id="clip18">
      <path d="M 25.9446022727273 20.1463068181818  C 25.9815340909091 20.2324810606061  26 20.3617424242424  26 20.5340909090909  C 26 20.8664772727273  25.938446969697 21.3004261363636  25.8153409090909 21.8359375  C 25.6922348484849 22.3714488636364  25.5629734848485 22.7930871212121  25.4275568181818 23.1008522727273  C 25.1690340909091 23.7163825757576  24.4180871212121 24.3688446969697  23.1747159090909 25.0582386363636  C 22.0175189393939 25.6860795454545  20.8726325757576 26  19.7400568181818 26  C 19.4076704545455 26  19.0814393939394 25.9784564393939  18.7613636363636 25.9353693181818  C 18.4412878787879 25.8922821969697  18.0873579545455 25.8153409090909  17.6995738636364 25.7045454545455  C 17.3117897727273 25.59375  17.022490530303 25.5044981060606  16.8316761363636 25.4367897727273  C 16.6408617424242 25.3690814393939  16.2992424242424 25.2428977272727  15.8068181818182 25.0582386363636  C 15.3143939393939 24.8735795454545  15.0127840909091 24.7627840909091  14.9019886363636 24.7258522727273  C 13.6955492424242 24.2949810606061  12.6183712121212 23.7840909090909  11.6704545454545 23.1931818181818  C 10.1070075757576 22.2206439393939  8.48200757575758 20.8910984848485  6.79545454545455 19.2045454545455  C 5.10890151515152 17.5179924242424  3.77935606060606 15.8929924242424  2.80681818181818 14.3295454545455  C 2.21590909090909 13.3816287878788  1.70501893939394 12.3044507575758  1.27414772727273 11.0980113636364  C 1.23721590909091 10.9872159090909  1.12642045454545 10.6856060606061  0.941761363636364 10.1931818181818  C 0.757102272727273 9.70075757575757  0.630918560606061 9.35913825757575  0.563210227272727 9.16832386363637  C 0.495501893939394 8.97750946969697  0.40625 8.68821022727273  0.295454545454545 8.30042613636363  C 0.184659090909091 7.91264204545454  0.107717803030303 7.55871212121212  0.0646306818181818 7.23863636363636  C 0.0215435606060606 6.9185606060606  0 6.59232954545455  0 6.25994318181818  C 0 5.12736742424242  0.313920454545455 3.98248106060606  0.941761363636364 2.82528409090909  C 1.6311553030303 1.58191287878787  2.28361742424242 0.83096590909091  2.89914772727273 0.572443181818181  C 3.20691287878788 0.437026515151513  3.62855113636364 0.307765151515149  4.1640625 0.18465909090909  C 4.69957386363636 0.0615530303030292  5.13352272727273 0  5.46590909090909 0  C 5.63825757575758 0  5.76751893939394 0.0184659090909096  5.85369318181818 0.055397727272726  C 6.07528409090909 0.129261363636364  6.40151515151515 0.597064393939394  6.83238636363636 1.45880681818182  C 6.96780303030303 1.69270833333333  7.15246212121212 2.02509469696969  7.38636363636364 2.45596590909091  C 7.62026515151515 2.88683712121212  7.83570075757576 3.27769886363636  8.03267045454546 3.62855113636364  C 8.22964015151515 3.97940340909091  8.42045454545455 4.30871212121212  8.60511363636364 4.61647727272727  C 8.64204545454546 4.66571969696969  8.74976325757576 4.81960227272727  8.92826704545455 5.078125  C 9.10677083333334 5.33664772727273  9.23910984848485 5.55516098484848  9.32528409090909 5.73366477272727  C 9.41145833333333 5.91216856060606  9.45454545454546 6.08759469696969  9.45454545454546 6.25994318181818  C 9.45454545454546 6.5061553030303  9.27911931818182 6.81392045454546  8.92826704545455 7.18323863636364  C 8.57741477272727 7.55255681818182  8.19578598484849 7.89109848484848  7.78338068181818 8.19886363636363  C 7.37097537878788 8.50662878787878  6.98934659090909 8.83285984848485  6.63849431818182 9.17755681818182  C 6.28764204545455 9.52225378787879  6.11221590909091 9.80539772727273  6.11221590909091 10.0269886363636  C 6.11221590909091 10.1377840909091  6.14299242424242 10.2762784090909  6.20454545454546 10.4424715909091  C 6.26609848484849 10.6086647727273  6.31841856060606 10.7348484848485  6.36150568181818 10.8210227272727  C 6.4045928030303 10.907196969697  6.49076704545455 11.0549242424242  6.62002840909091 11.2642045454545  C 6.74928977272727 11.4734848484848  6.82007575757576 11.5904356060606  6.83238636363636 11.6150568181818  C 7.76799242424242 13.3016098484848  8.83901515151515 14.7481060606061  10.0454545454545 15.9545454545455  C 11.2518939393939 17.1609848484848  12.6983901515152 18.2320075757576  14.3849431818182 19.1676136363636  C 14.4095643939394 19.1799242424242  14.5265151515152 19.2507102272727  14.7357954545455 19.3799715909091  C 14.9450757575758 19.5092329545455  15.092803030303 19.5954071969697  15.1789772727273 19.6384943181818  C 15.2651515151515 19.6815814393939  15.3913352272727 19.7339015151515  15.5575284090909 19.7954545454545  C 15.7237215909091 19.8570075757576  15.8622159090909 19.8877840909091  15.9730113636364 19.8877840909091  C 16.1946022727273 19.8877840909091  16.4777462121212 19.7123579545455  16.8224431818182 19.3615056818182  C 17.1671401515152 19.0106534090909  17.4933712121212 18.6290246212121  17.8011363636364 18.2166193181818  C 18.1089015151515 17.8042140151515  18.4474431818182 17.4225852272727  18.8167613636364 17.0717329545455  C 19.1860795454545 16.7208806818182  19.4938446969697 16.5454545454545  19.7400568181818 16.5454545454545  C 19.9124053030303 16.5454545454545  20.0878314393939 16.5885416666667  20.2663352272727 16.6747159090909  C 20.4448390151515 16.7608901515151  20.6633522727273 16.8932291666667  20.921875 17.0717329545455  C 21.1803977272727 17.2502367424242  21.3342803030303 17.3579545454545  21.3835227272727 17.3948863636364  C 21.6912878787879 17.5795454545455  22.0205965909091 17.7703598484848  22.3714488636364 17.9673295454545  C 22.7223011363636 18.1642992424242  23.1131628787879 18.3797348484848  23.5440340909091 18.6136363636364  C 23.9749053030303 18.8475378787879  24.3072916666667 19.032196969697  24.5411931818182 19.1676136363636  C 25.4029356060606 19.5984848484848  25.8707386363636 19.9247159090909  25.9446022727273 20.1463068181818  Z " fill-rule="evenodd" />
    </mask>
  </defs>
  <g transform="matrix(1 0 0 1 -56 -386 )">
    <path d="M 25.9446022727273 20.1463068181818  C 25.9815340909091 20.2324810606061  26 20.3617424242424  26 20.5340909090909  C 26 20.8664772727273  25.938446969697 21.3004261363636  25.8153409090909 21.8359375  C 25.6922348484849 22.3714488636364  25.5629734848485 22.7930871212121  25.4275568181818 23.1008522727273  C 25.1690340909091 23.7163825757576  24.4180871212121 24.3688446969697  23.1747159090909 25.0582386363636  C 22.0175189393939 25.6860795454545  20.8726325757576 26  19.7400568181818 26  C 19.4076704545455 26  19.0814393939394 25.9784564393939  18.7613636363636 25.9353693181818  C 18.4412878787879 25.8922821969697  18.0873579545455 25.8153409090909  17.6995738636364 25.7045454545455  C 17.3117897727273 25.59375  17.022490530303 25.5044981060606  16.8316761363636 25.4367897727273  C 16.6408617424242 25.3690814393939  16.2992424242424 25.2428977272727  15.8068181818182 25.0582386363636  C 15.3143939393939 24.8735795454545  15.0127840909091 24.7627840909091  14.9019886363636 24.7258522727273  C 13.6955492424242 24.2949810606061  12.6183712121212 23.7840909090909  11.6704545454545 23.1931818181818  C 10.1070075757576 22.2206439393939  8.48200757575758 20.8910984848485  6.79545454545455 19.2045454545455  C 5.10890151515152 17.5179924242424  3.77935606060606 15.8929924242424  2.80681818181818 14.3295454545455  C 2.21590909090909 13.3816287878788  1.70501893939394 12.3044507575758  1.27414772727273 11.0980113636364  C 1.23721590909091 10.9872159090909  1.12642045454545 10.6856060606061  0.941761363636364 10.1931818181818  C 0.757102272727273 9.70075757575757  0.630918560606061 9.35913825757575  0.563210227272727 9.16832386363637  C 0.495501893939394 8.97750946969697  0.40625 8.68821022727273  0.295454545454545 8.30042613636363  C 0.184659090909091 7.91264204545454  0.107717803030303 7.55871212121212  0.0646306818181818 7.23863636363636  C 0.0215435606060606 6.9185606060606  0 6.59232954545455  0 6.25994318181818  C 0 5.12736742424242  0.313920454545455 3.98248106060606  0.941761363636364 2.82528409090909  C 1.6311553030303 1.58191287878787  2.28361742424242 0.83096590909091  2.89914772727273 0.572443181818181  C 3.20691287878788 0.437026515151513  3.62855113636364 0.307765151515149  4.1640625 0.18465909090909  C 4.69957386363636 0.0615530303030292  5.13352272727273 0  5.46590909090909 0  C 5.63825757575758 0  5.76751893939394 0.0184659090909096  5.85369318181818 0.055397727272726  C 6.07528409090909 0.129261363636364  6.40151515151515 0.597064393939394  6.83238636363636 1.45880681818182  C 6.96780303030303 1.69270833333333  7.15246212121212 2.02509469696969  7.38636363636364 2.45596590909091  C 7.62026515151515 2.88683712121212  7.83570075757576 3.27769886363636  8.03267045454546 3.62855113636364  C 8.22964015151515 3.97940340909091  8.42045454545455 4.30871212121212  8.60511363636364 4.61647727272727  C 8.64204545454546 4.66571969696969  8.74976325757576 4.81960227272727  8.92826704545455 5.078125  C 9.10677083333334 5.33664772727273  9.23910984848485 5.55516098484848  9.32528409090909 5.73366477272727  C 9.41145833333333 5.91216856060606  9.45454545454546 6.08759469696969  9.45454545454546 6.25994318181818  C 9.45454545454546 6.5061553030303  9.27911931818182 6.81392045454546  8.92826704545455 7.18323863636364  C 8.57741477272727 7.55255681818182  8.19578598484849 7.89109848484848  7.78338068181818 8.19886363636363  C 7.37097537878788 8.50662878787878  6.98934659090909 8.83285984848485  6.63849431818182 9.17755681818182  C 6.28764204545455 9.52225378787879  6.11221590909091 9.80539772727273  6.11221590909091 10.0269886363636  C 6.11221590909091 10.1377840909091  6.14299242424242 10.2762784090909  6.20454545454546 10.4424715909091  C 6.26609848484849 10.6086647727273  6.31841856060606 10.7348484848485  6.36150568181818 10.8210227272727  C 6.4045928030303 10.907196969697  6.49076704545455 11.0549242424242  6.62002840909091 11.2642045454545  C 6.74928977272727 11.4734848484848  6.82007575757576 11.5904356060606  6.83238636363636 11.6150568181818  C 7.76799242424242 13.3016098484848  8.83901515151515 14.7481060606061  10.0454545454545 15.9545454545455  C 11.2518939393939 17.1609848484848  12.6983901515152 18.2320075757576  14.3849431818182 19.1676136363636  C 14.4095643939394 19.1799242424242  14.5265151515152 19.2507102272727  14.7357954545455 19.3799715909091  C 14.9450757575758 19.5092329545455  15.092803030303 19.5954071969697  15.1789772727273 19.6384943181818  C 15.2651515151515 19.6815814393939  15.3913352272727 19.7339015151515  15.5575284090909 19.7954545454545  C 15.7237215909091 19.8570075757576  15.8622159090909 19.8877840909091  15.9730113636364 19.8877840909091  C 16.1946022727273 19.8877840909091  16.4777462121212 19.7123579545455  16.8224431818182 19.3615056818182  C 17.1671401515152 19.0106534090909  17.4933712121212 18.6290246212121  17.8011363636364 18.2166193181818  C 18.1089015151515 17.8042140151515  18.4474431818182 17.4225852272727  18.8167613636364 17.0717329545455  C 19.1860795454545 16.7208806818182  19.4938446969697 16.5454545454545  19.7400568181818 16.5454545454545  C 19.9124053030303 16.5454545454545  20.0878314393939 16.5885416666667  20.2663352272727 16.6747159090909  C 20.4448390151515 16.7608901515151  20.6633522727273 16.8932291666667  20.921875 17.0717329545455  C 21.1803977272727 17.2502367424242  21.3342803030303 17.3579545454545  21.3835227272727 17.3948863636364  C 21.6912878787879 17.5795454545455  22.0205965909091 17.7703598484848  22.3714488636364 17.9673295454545  C 22.7223011363636 18.1642992424242  23.1131628787879 18.3797348484848  23.5440340909091 18.6136363636364  C 23.9749053030303 18.8475378787879  24.3072916666667 19.032196969697  24.5411931818182 19.1676136363636  C 25.4029356060606 19.5984848484848  25.8707386363636 19.9247159090909  25.9446022727273 20.1463068181818  Z " fill-rule="nonzero" fill="#000000" stroke="none" fill-opacity="0" transform="matrix(1 0 0 1 56 386 )" />
    <path d="M 25.9446022727273 20.1463068181818  C 25.9815340909091 20.2324810606061  26 20.3617424242424  26 20.5340909090909  C 26 20.8664772727273  25.938446969697 21.3004261363636  25.8153409090909 21.8359375  C 25.6922348484849 22.3714488636364  25.5629734848485 22.7930871212121  25.4275568181818 23.1008522727273  C 25.1690340909091 23.7163825757576  24.4180871212121 24.3688446969697  23.1747159090909 25.0582386363636  C 22.0175189393939 25.6860795454545  20.8726325757576 26  19.7400568181818 26  C 19.4076704545455 26  19.0814393939394 25.9784564393939  18.7613636363636 25.9353693181818  C 18.4412878787879 25.8922821969697  18.0873579545455 25.8153409090909  17.6995738636364 25.7045454545455  C 17.3117897727273 25.59375  17.022490530303 25.5044981060606  16.8316761363636 25.4367897727273  C 16.6408617424242 25.3690814393939  16.2992424242424 25.2428977272727  15.8068181818182 25.0582386363636  C 15.3143939393939 24.8735795454545  15.0127840909091 24.7627840909091  14.9019886363636 24.7258522727273  C 13.6955492424242 24.2949810606061  12.6183712121212 23.7840909090909  11.6704545454545 23.1931818181818  C 10.1070075757576 22.2206439393939  8.48200757575758 20.8910984848485  6.79545454545455 19.2045454545455  C 5.10890151515152 17.5179924242424  3.77935606060606 15.8929924242424  2.80681818181818 14.3295454545455  C 2.21590909090909 13.3816287878788  1.70501893939394 12.3044507575758  1.27414772727273 11.0980113636364  C 1.23721590909091 10.9872159090909  1.12642045454545 10.6856060606061  0.941761363636364 10.1931818181818  C 0.757102272727273 9.70075757575757  0.630918560606061 9.35913825757575  0.563210227272727 9.16832386363637  C 0.495501893939394 8.97750946969697  0.40625 8.68821022727273  0.295454545454545 8.30042613636363  C 0.184659090909091 7.91264204545454  0.107717803030303 7.55871212121212  0.0646306818181818 7.23863636363636  C 0.0215435606060606 6.9185606060606  0 6.59232954545455  0 6.25994318181818  C 0 5.12736742424242  0.313920454545455 3.98248106060606  0.941761363636364 2.82528409090909  C 1.6311553030303 1.58191287878787  2.28361742424242 0.83096590909091  2.89914772727273 0.572443181818181  C 3.20691287878788 0.437026515151513  3.62855113636364 0.307765151515149  4.1640625 0.18465909090909  C 4.69957386363636 0.0615530303030292  5.13352272727273 0  5.46590909090909 0  C 5.63825757575758 0  5.76751893939394 0.0184659090909096  5.85369318181818 0.055397727272726  C 6.07528409090909 0.129261363636364  6.40151515151515 0.597064393939394  6.83238636363636 1.45880681818182  C 6.96780303030303 1.69270833333333  7.15246212121212 2.02509469696969  7.38636363636364 2.45596590909091  C 7.62026515151515 2.88683712121212  7.83570075757576 3.27769886363636  8.03267045454546 3.62855113636364  C 8.22964015151515 3.97940340909091  8.42045454545455 4.30871212121212  8.60511363636364 4.61647727272727  C 8.64204545454546 4.66571969696969  8.74976325757576 4.81960227272727  8.92826704545455 5.078125  C 9.10677083333334 5.33664772727273  9.23910984848485 5.55516098484848  9.32528409090909 5.73366477272727  C 9.41145833333333 5.91216856060606  9.45454545454546 6.08759469696969  9.45454545454546 6.25994318181818  C 9.45454545454546 6.5061553030303  9.27911931818182 6.81392045454546  8.92826704545455 7.18323863636364  C 8.57741477272727 7.55255681818182  8.19578598484849 7.89109848484848  7.78338068181818 8.19886363636363  C 7.37097537878788 8.50662878787878  6.98934659090909 8.83285984848485  6.63849431818182 9.17755681818182  C 6.28764204545455 9.52225378787879  6.11221590909091 9.80539772727273  6.11221590909091 10.0269886363636  C 6.11221590909091 10.1377840909091  6.14299242424242 10.2762784090909  6.20454545454546 10.4424715909091  C 6.26609848484849 10.6086647727273  6.31841856060606 10.7348484848485  6.36150568181818 10.8210227272727  C 6.4045928030303 10.907196969697  6.49076704545455 11.0549242424242  6.62002840909091 11.2642045454545  C 6.74928977272727 11.4734848484848  6.82007575757576 11.5904356060606  6.83238636363636 11.6150568181818  C 7.76799242424242 13.3016098484848  8.83901515151515 14.7481060606061  10.0454545454545 15.9545454545455  C 11.2518939393939 17.1609848484848  12.6983901515152 18.2320075757576  14.3849431818182 19.1676136363636  C 14.4095643939394 19.1799242424242  14.5265151515152 19.2507102272727  14.7357954545455 19.3799715909091  C 14.9450757575758 19.5092329545455  15.092803030303 19.5954071969697  15.1789772727273 19.6384943181818  C 15.2651515151515 19.6815814393939  15.3913352272727 19.7339015151515  15.5575284090909 19.7954545454545  C 15.7237215909091 19.8570075757576  15.8622159090909 19.8877840909091  15.9730113636364 19.8877840909091  C 16.1946022727273 19.8877840909091  16.4777462121212 19.7123579545455  16.8224431818182 19.3615056818182  C 17.1671401515152 19.0106534090909  17.4933712121212 18.6290246212121  17.8011363636364 18.2166193181818  C 18.1089015151515 17.8042140151515  18.4474431818182 17.4225852272727  18.8167613636364 17.0717329545455  C 19.1860795454545 16.7208806818182  19.4938446969697 16.5454545454545  19.7400568181818 16.5454545454545  C 19.9124053030303 16.5454545454545  20.0878314393939 16.5885416666667  20.2663352272727 16.6747159090909  C 20.4448390151515 16.7608901515151  20.6633522727273 16.8932291666667  20.921875 17.0717329545455  C 21.1803977272727 17.2502367424242  21.3342803030303 17.3579545454545  21.3835227272727 17.3948863636364  C 21.6912878787879 17.5795454545455  22.0205965909091 17.7703598484848  22.3714488636364 17.9673295454545  C 22.7223011363636 18.1642992424242  23.1131628787879 18.3797348484848  23.5440340909091 18.6136363636364  C 23.9749053030303 18.8475378787879  24.3072916666667 19.032196969697  24.5411931818182 19.1676136363636  C 25.4029356060606 19.5984848484848  25.8707386363636 19.9247159090909  25.9446022727273 20.1463068181818  Z " stroke-width="2" stroke="#01538b" fill="none" transform="matrix(1 0 0 1 56 386 )" mask="url(#clip18)" />
  </g>
</svg>