<?xml version="1.0" standalone="no"?><!DOCTYPE svg PUBLIC "-//W3C//DTD SVG 1.1//EN" "http://www.w3.org/Graphics/SVG/1.1/DTD/svg11.dtd"><svg class="icon" width="128px" height="128.00px" viewBox="0 0 1024 1024" version="1.1" xmlns="http://www.w3.org/2000/svg"><path d="M535.2448 455.80288h272.91648v40.96H535.2448zM535.2448 563.24096h272.91648v40.96H535.2448zM535.2448 667.15648h272.91648v40.96H535.2448zM273.408 190.68928h40.96v182.39488h-40.96zM707.80928 190.68928h40.96v182.39488h-40.96z" fill="#01538B" /><path d="M892.0064 824.50432H128.6144V272.60928h763.392v551.89504z m-722.432-40.96h681.472V313.56928H169.5744v469.97504z" fill="#01538B" /><path d="M352.27648 622.87872c-55.07072 0-99.88096-44.81024-99.88096-99.88096s44.81024-99.88096 99.88096-99.88096 99.90144 44.81024 99.90144 99.88096-44.83072 99.88096-99.90144 99.88096z m0-158.80192a58.9824 58.9824 0 0 0-58.92096 58.92096 58.9824 58.9824 0 0 0 58.92096 58.92096 59.00288 59.00288 0 0 0 58.94144-58.92096 59.00288 59.00288 0 0 0-58.94144-58.92096zM227.59424 737.15712l-25.12896-32.31744a243.5072 243.5072 0 0 1 150.69184-51.6096c54.21056 0 105.65632 17.32608 148.76672 50.0736l-24.80128 32.60416a203.1616 203.1616 0 0 0-123.96544-41.71776 202.8544 202.8544 0 0 0-125.56288 42.96704z" fill="#01538B" /></svg>